<?xml version="1.0" encoding="utf-8"?>
<!-- Generator: Adobe Illustrator 19.0.0, SVG Export Plug-In . SVG Version: 6.00 Build 0)  -->
<svg version="1.1" id="Layer_1" xmlns="http://www.w3.org/2000/svg" xmlns:xlink="http://www.w3.org/1999/xlink" x="0px" y="0px"
	 viewBox="620 -433 1440 1067" style="enable-background:new 620 -433 1440 1067;" xml:space="preserve">
<style type="text/css">
	.st0{opacity:1.000000e-002;fill:#FFFFFF;enable-background:new    ;}
	.st1{opacity:0.15;fill:#FFFFFF;enable-background:new    ;}
	.st2{opacity:3.000000e-002;fill:#FFFFFF;enable-background:new    ;}
	.st3{opacity:2.000000e-002;}
	.st4{fill:#FFFFFF;}
	.st5{opacity:5.000000e-002;}
	.st6{opacity:0.5;}
	.st7{fill:#F17D80;}
	.st8{opacity:0.1;}
</style>
<path class="st0" d="M858.8,68c-10.7,14.1-30.8,16.8-44.9,6L616.7-76.4c-14.1-10.7-16.8-30.8-6-44.9l0,0c10.7-14.1,30.8-16.8,44.9-6
	L852.7,23.2C866.8,33.9,869.5,54,858.8,68L858.8,68z"/>
<path class="st1" d="M1092.3,478.5c-10.7,14.1-30.8,16.8-44.9,6L850.1,334c-14.1-10.7-16.8-30.8-6-44.9l0,0
	c10.7-14.1,30.8-16.8,44.9-6l197.3,150.5C1100.2,444.3,1103,464.4,1092.3,478.5L1092.3,478.5z"/>
<path class="st1" d="M1419.4,496.6c-10.7,14.1-30.8,16.8-44.9,6l-101.8-77.7c-14.1-10.7-16.8-30.8-6-44.9l0,0
	c10.7-14.1,30.8-16.8,44.9-6l101.8,77.7C1427.5,462.4,1430.2,482.5,1419.4,496.6L1419.4,496.6z"/>
<path class="st2" d="M875,493.2c-10.7,14.1-30.8,16.8-44.9,6l-101.8-77.7c-14.1-10.7-16.8-30.8-6-44.9l0,0
	c10.7-14.1,30.8-16.8,44.9-6L869,448.4C883,459.1,885.7,479.2,875,493.2L875,493.2z"/>
<g class="st3">
	<path id="SVGID_1_" class="st4" d="M1002.9,252.1L506.5-126.6c-14.1-10.7-34.1-8-44.9,6c-10.7,14.1-8,34.1,6,44.9l68.6,52.3
		c14.1,10.7,16.8,30.8,6,44.9s-30.8,16.8-44.9,6s-34.1-8-44.9,6c-0.5,0.7-1,1.4-1.5,2.1c-3.3,3.9-5,6.1-10.7,9.7
		c-4.6,2.9-14.1,6.3-26.7-1.1l-44.2-33.7c-14.1-10.7-34.1-8-44.9,6s-8,34.1,6,44.9l115.4,88.1c10.5,10.1,9.7,20.2,8.1,25.4
		c-2,6.8-3.7,9-7,13.6c-0.4,0.5-0.7,1-1,1.4c-10.7,14.1-8,34.1,6,44.9l15.9,12.1c14.1,10.7,16.8,30.8,6,44.9
		c-10.7,14.1-30.8,16.8-44.9,6l-54.1-41.3c-14.1-10.7-34.1-8-44.9,6c-10.7,14.1-8,34.1,6,44.9l197.3,150.5c14.1,10.7,34.1,8,44.9-6
		c0.5-0.6,1-1.4,1.4-2c3.3-3.9,5-6.1,10.6-9.6c4.7-2.9,14.6-6.5,27.7,1.8l100.6,76.7c14.1,10.7,34.1,8,44.9-6
		c10.7-14.1,8-34.1-6-44.9l-63.3-48.3c-10.3-10.1-9.6-20.1-8-25.2c2.4-8.1,4.4-9.7,9.2-16.6l-0.1,0c9.4-14,6.3-32.9-7.2-43.2
		l-58.7-44.8c-14.1-10.7-16.8-30.8-6-44.9s30.8-16.8,44.9-6l76.3,58.2c14.1,10.7,34.1,8,44.9-6s8-34.1-6-44.9l-12.7-9.7
		c-14.1-10.7-16.8-30.8-6-44.9s30.8-16.8,44.9-6l154.2,117.6c14.1,10.7,34.1,8,44.9-6C1019.6,282.9,1016.9,262.7,1002.9,252.1z"/>
</g>
<g class="st5">
	<path id="SVGID_3_" class="st4" d="M1513,95.4c-12.7-10.4-11.9-21.2-10.3-26.6c2-6.8,3.7-8.9,7.2-13.7c0.1-0.1,0.2-0.2,0.2-0.3
		c10.3-13.4,7.7-32.7-5.8-43l-42.6-32.5c-13.4-10.3-16.1-29.5-5.8-43c10.3-13.4,29.5-16.1,43-5.8l140.2,106.9
		c12.9,9.8,31,7.8,41.6-4.1l0,0.1c5.2-6.2,6.2-8.5,13.1-12.7c4.8-3,14.9-6.5,28.4,2.9l51.7,39.4c13.4,10.3,32.7,7.7,43-5.8
		c10.3-13.4,7.7-32.7-5.8-43l-33.6-25.7c-12.7-10.4-11.9-21.2-10.3-26.6c1.8-6,3.3-8.3,6.1-12.2c0.6-0.6,1.1-1.2,1.5-1.8
		c10.3-13.4,7.7-32.7-5.8-43l-450.9-344c-13.4-10.3-32.7-7.7-43,5.8c-10.3,13.4-7.7,32.7,5.8,43l39.6,30.2
		c13.4,10.3,16.1,29.5,5.8,43c-10.3,13.4-29.5,16.1-43,5.8l-82.1-62.7c-13.4-10.3-32.7-7.7-43,5.8c-10.3,13.4-7.7,32.7,5.8,43
		l73.1,55.8c13.4,10.3,16.1,29.5,5.8,43c-10.3,13.4-29.5,16.1-43,5.8l-170.7-130.2c-13.4-10.3-32.7-7.7-43,5.8
		c-10.3,13.4-7.7,32.7,5.8,43L1132.1-195c13.4,10.3,16.1,29.5,5.8,43c-10.3,13.4-29.5,16.1-43,5.8l5.4,4.1
		c-13.4-10.3-32.7-7.7-43,5.8c-10.3,13.4-7.7,32.7,5.8,43l9.9,7.5c13.4,10.3,16.1,29.5,5.8,43c-10.3,13.4-29.5,16.1-43,5.8l3,2.3
		c-13.4-10.3-32.7-7.7-43,5.8c-10.3,13.4-7.7,32.7,5.8,43l450.9,344c13.4,10.3,32.7,7.7,43-5.8c10.3-13.4,7.7-32.7-5.8-43l-12.2-9.3
		c-13.4-10.3-16.1-29.5-5.8-43c10.3-13.4,29.5-16.1,43-5.8l79.9,61c13.4,10.3,32.7,7.7,43-5.8c10.3-13.4,7.7-32.7-5.8-43l-3.9-3
		c-9.5-9.5-8.8-18.9-7.3-23.8c2-6.5,3.6-8.7,6.8-13.2c0.3-0.4,0.6-0.8,0.9-1.2c10.3-13.4,7.7-32.7-5.8-43L1513,95.4z"/>
</g>
<g class="st6">
	<path class="st7" d="M1435.8-495.4c0.8,1.1,1.4,2.3,0.8,3.4C1436.3-492.6,1434.8-494.4,1435.8-495.4z"/>
	<path class="st7" d="M1103.4-479.4c0.9,0.6-0.4,1.6-0.8,0.5C1102.9-479.2,1103.2-479.3,1103.4-479.4z"/>
	<path class="st7" d="M1518.5-391.1c0.4,0.3,0.2,0.6-0.2,1c-0.4-0.3-0.5-0.6-0.1-0.9C1518.3-391,1518.5-391,1518.5-391.1z"/>
	<path class="st7" d="M1520.6-378.4c-0.5,1.3-2.1,1-3,0.4C1518.2-379.3,1520.2-379.6,1520.6-378.4z"/>
	<path class="st7" d="M1377.2-531.8c-0.4,0.3-0.7,0.3-1.1-0.1c0.4-0.1,0.4-0.1,0.3-0.6C1376.8-532.6,1377.2-532.1,1377.2-531.8z"/>
	<path class="st7" d="M1641.1-292.7c-0.7,4.6-7.7,2.7-5.2-0.3C1637.1-294.6,1640-294.3,1641.1-292.7z"/>
	<path class="st7" d="M1464.1-401.8c0.1-1.1,1.5-2,2.5-3.2c0.3,0.1,0.1,0.4,0,0.6c1.4-0.9,4.1-1.5,3.5-3.7c1.4-0.4,2.9-2,4.3-0.6
		C1473.5-405.5,1466.8-403.9,1464.1-401.8z"/>
	<path class="st7" d="M1486-393.6c0.1,0.4,0.3,0.9-0.4,1.3c-0.1-0.1-0.2-0.2-0.4-0.1C1484.7-393,1485.4-393.6,1486-393.6z"/>
	<path class="st7" d="M1424.5-451c0.1,0.1,0.3,0.3,0.4,0.4c0,0.4-0.7,1.1-1.1,0.5C1424-450.7,1424.4-450.4,1424.5-451z"/>
	<path class="st7" d="M1658.9-341.1c-0.6,0.6-1.3,1-1.9,0.5C1657.2-341.6,1658.9-342.1,1658.9-341.1z"/>
	<path class="st7" d="M1474.1-373.9c-1.5,0.8-2.9,0.9-4.2-0.5c0.6-0.3-0.1-0.6,0.6-1.3C1471.7-375.2,1472.9-374.5,1474.1-373.9z"/>
	<path class="st7" d="M1356.1-499.4c-0.4,0.9-1.3,0.8-1.6-0.1C1355.2-500.1,1355.6-500.2,1356.1-499.4z"/>
	<path class="st7" d="M1396.1-452.3c0.1,0.1,0.3,0.3,0.4,0.4c-0.1,0.5-0.9,1.1-1.2,0.3C1395.5-451.7,1395.8-452,1396.1-452.3z"/>
	<path class="st7" d="M1454-373.8c0.4,0.2,0.3,0.4,0.3,0.6c-0.4,0.5-0.7,0.4-1.1-0.1C1453.5-373.3,1453.8-373.5,1454-373.8z"/>
	<path class="st7" d="M1622.6-326.2c-0.4,0.5-0.7,0.1-1.1-0.4c0.2-0.2,0.4-0.3,0.3-0.6C1622.3-327.4,1623.1-326.6,1622.6-326.2z"/>
	<path class="st7" d="M1668.7-269.9c0.2,0.2,0.4,0.4,0.7,0.7c-0.2,0.6-0.7,0.7-1.2,0.1C1668.3-269.4,1668.3-269.6,1668.7-269.9z"/>
	<path class="st7" d="M1291.1-516.3c0.3,0.4,0.5,0.6,0.1,0.9C1290.9-515.8,1290.6-516.1,1291.1-516.3z"/>
	<path class="st7" d="M1661.4-259.3c-0.4,0.6-1.1-0.2-0.6-0.6C1661.3-259.5,1661.4-259.9,1661.4-259.3z"/>
	<path class="st7" d="M1180.1-523.9c0.1,0.1,0.3,0.3,0.4,0.4c-1.9,1.9-3.1,2.9-3.7,5.2c-0.5-0.4-0.1-0.6-0.6-0.9
		C1177.1-521.2,1177.6-522.6,1180.1-523.9z"/>
	<path class="st7" d="M1317.4-455c0.3,0.4-0.5,1.3-0.9,0.6C1316.8-455,1317.1-454.8,1317.4-455z"/>
	<path class="st7" d="M1565.5-278.5c0.1,0.1,0.3,0.4,0.6,0.6c-1,0.7-1.4,1.3-2.5,1.7C1562.4-276.7,1564.8-278.4,1565.5-278.5z"/>
	<path class="st7" d="M1656.3-240.1c0.1,0.1,0.1,0.1,0.3,0.3c-0.1,0-0.1,0.2,0,0.3c-0.1,0.1-0.2,0.2-0.3,0.3c-0.1-0.1-0.2-0.1-0.3,0
		c-0.1-0.1-0.1-0.1-0.3-0.3c0.1-0.1,0.1-0.2,0-0.3c0.1-0.1,0.1-0.1,0.3-0.3C1656.2-240,1656.2-240,1656.3-240.1z"/>
	<path class="st7" d="M1411.2-332.7c1.5,1.2,0.7,3.3,2.4,4.9c-0.6-0.2-1.6-0.5-1.4-1.3c-0.7,0.6-1.5,1.2-1.2,1.8
		c-2.1-1.7,0.6-3-0.2-5c-0.9-0.4-1-1.5-2-1.9c0.1-0.6,0.7-1,0.3-1.6C1411.4-337.2,1412.8-334.3,1411.2-332.7z M1411.8-329
		c-0.2-0.2,0.4-0.5,0.4-0.8c-0.2-0.2-0.4-0.4-0.7-0.7C1411.1-330.2,1411.2-329,1411.8-329z"/>
	<path class="st7" d="M1284.6-466C1286.2-469,1286.9-464.1,1284.6-466L1284.6-466z"/>
	<path class="st7" d="M1575.3-305.5c-0.4,0.1-0.6,0.2-0.9-0.2C1574.5-306.5,1575.2-306.2,1575.3-305.5z"/>
	<path class="st7" d="M1598-274.8c0.1,0.1,0.3,0.3,0.4,0.4c-0.2,0.4-0.4,0.3-0.6,0.3C1597.6-274.2,1597.8-274.5,1598-274.8z"/>
	<path class="st7" d="M1279.9-440.4c-0.4,0.5-0.9,0.7-1.2,0.1c0.4,0.1,0.7-0.3,0.5-0.6C1279.4-441.2,1279.9-440.7,1279.9-440.4z"/>
	<path class="st7" d="M1307.6-405.2c-0.1-0.6,0.4-1.5,0.7-1.7C1310-406.5,1308.7-404.4,1307.6-405.2z"/>
	<path class="st7" d="M1301.3-413.7c-0.6,0.6-1,0.4-1.5-0.2C1299.8-415.1,1302-415,1301.3-413.7z"/>
	<path class="st7" d="M1306-398.3c-0.4,0.8-1.9,0.8-2.7,0.1C1304.2-398.5,1305.1-398.3,1306-398.3z"/>
	<path class="st7" d="M1568.7-267.2c-1.1,0-2.3-0.8-3.4-1.5C1566.4-268.5,1567.5-268.2,1568.7-267.2z"/>
	<path class="st7" d="M1268-430.8c0.3,0.5,0.6,1-0.2,1.5c-0.2-0.2-0.4-0.1-0.7-0.4C1267.6-430.1,1267.3-430.8,1268-430.8z"/>
	<path class="st7" d="M1538.3-290.8c1.8-1.6,5,0.7,3.1,2C1540.4-288.2,1539-289.5,1538.3-290.8z"/>
	<path class="st7" d="M1621.2-201c0.2,0.4,0.1,1-0.4,1C1620.2-200.5,1620.8-201,1621.2-201z"/>
	<path class="st7" d="M1310.6-371.8c-0.4,0.6-0.8,0.5-1.2,0.1c0.7-0.4-0.1-0.8,0.4-1.3C1310.4-373,1310.2-372.2,1310.6-371.8z"/>
	<path class="st7" d="M1412.8-224.8c-0.8,0.3-1.6,0.5-2.3,0C1411.4-225,1412.1-225.5,1412.8-224.8z"/>
	<path class="st7" d="M1463.9-88.6c-0.4,1.1-0.3,3.1-2,2.8C1460.9-86.8,1462.9-88.3,1463.9-88.6z"/>
	<path class="st7" d="M1272.6-388.9c0.2,3.8-7.1,5.4-6.3,0.7c0.6-0.6,0.4,0.6,0.8,0.8C1266.5-390.1,1270.6-390.6,1272.6-388.9z"/>
	<path class="st7" d="M1286.3-365.3c-1,1-3.1-1.2-2.2-2.1C1285-366.9,1285.6-366.4,1286.3-365.3z"/>
	<path class="st7" d="M1267.5-378.9c-1.1-0.4-1.1-1.7-0.7-2.4C1268.2-381.8,1268.9-379,1267.5-378.9z"/>
	<path class="st7" d="M1587.4-192.5c0.5,0.4,0.5,0.8,0.8,1.1c-0.4,0.3-0.8,0.8-1.1,0.8C1586.5-191.2,1586.6-191.8,1587.4-192.5z"/>
	<path class="st7" d="M1582.8-196c-0.4,0.6-0.7,0.4-1.1,0.5c-0.6-0.4-0.1-0.8-0.5-1.1C1581.8-196.9,1582.7-196.8,1582.8-196z"/>
	<path class="st7" d="M1206.5-442.1c0.4,0.2,0.4,0.6,0.5,0.8c-0.4,0.4-0.9,0.4-1.2,0.1C1206.4-441.5,1206.3-441.8,1206.5-442.1z"/>
	<path class="st7" d="M1527.6-254.4c0.6,0.6,0.3,1.3-0.3,1.8C1527.1-253.2,1527-253.8,1527.6-254.4z"/>
	<path class="st7" d="M1277.7-357.3c-0.4-0.4-0.8-0.2-1.3-0.9c0.6,0.4,1.1-0.8,0.4-0.7C1277.4-360.4,1279.5-358.1,1277.7-357.3z"/>
	<path class="st7" d="M1487.4-256.8c0.3,1.3-1.8,4.6-3.5,3.4C1482.9-254.7,1485.8-257.9,1487.4-256.8z"/>
	<path class="st7" d="M1334.3-290.8c-1.4,0.8-2.4-1.4-2.8-1.7C1332.4-292.5,1333.4-291.8,1334.3-290.8z"/>
	<path class="st7" d="M1257.8-364.1c0.1,0.4,0.1,0.9-0.5,0.9C1256.9-363.7,1257.5-364.2,1257.8-364.1z"/>
	<path class="st7" d="M1506.1-254.2c0.1,0.4,0.3,0.9-0.4,1.3c-0.3-0.3-0.4-0.1-0.7-0.4C1505.3-253.8,1505.6-253.9,1506.1-254.2z"/>
	<path class="st7" d="M1153.2-395.9c-1.8,1.3-3.8-1.7-3.4-3.2C1151.5-401,1153.9-397.4,1153.2-395.9z"/>
	<path class="st7" d="M1230.7-387.1c-1.1,1.2-2.6,1.4-3.1,0.2C1228.4-387.7,1230.1-388.9,1230.7-387.1z"/>
	<path class="st7" d="M1144.5-430.5c-0.1-1.2,0.7-2.7,2.2-3.5c3.8-2,5.6,4.7,1.3,5.4C1146.8-428.4,1145.7-429.6,1144.5-430.5z"/>
	<path class="st7" d="M1538.7-207.4c-0.6-0.9-1.3-1.1-0.4-2.1C1539.2-209.3,1539.4-208.1,1538.7-207.4z"/>
	<path class="st7" d="M1541.4-198.6c-2.2-1.4-2.4-3.9-3-5.8C1540.6-204.1,1545.8-200,1541.4-198.6z"/>
	<path class="st7" d="M1350.8-245c0.5,0.4,0.3,0.7-0.1,1.1C1349.9-243.9,1350-245.1,1350.8-245z"/>
	<path class="st7" d="M1543.8-189.3c0.6,0.4,0.3,0.8-0.2,1.2c-0.2-0.2-0.4-0.4-0.6-0.6C1543.2-189.2,1543.5-189.3,1543.8-189.3z"/>
	<path class="st7" d="M1567.5-162.2c-0.6,0.8-1.7,0.4-1.8-0.3C1565.9-163.3,1567.7-163.4,1567.5-162.2z"/>
	<path class="st7" d="M1247.1-345.8c-0.3,0.4-0.6,0.5-0.9,0.1c0.1-0.2,0.1-0.4,0.3-0.6C1246.6-346.2,1246.8-346,1247.1-345.8z"/>
	<path class="st7" d="M1522.9-203.5c-0.9,1.5-1.5,3-2.7,4C1520.7-200.7,1521.9-202.6,1522.9-203.5z"/>
	<path class="st7" d="M1260.1-324.2c-0.1,1.1-2.6,2.9-3.1,2.6C1258.3-322.4,1259.1-323,1260.1-324.2z"/>
	<path class="st7" d="M1354.3-425.9c2-3.2,7.4-0.8,5.6,1.8c-1,1.4-4,2.5-5.1,0.1C1354.7-424.9,1355.6-425.6,1354.3-425.9z"/>
	<path class="st7" d="M1286.8-286.3c-0.3,0.4-0.6,0.1-0.8,0.5c-0.3-0.6-0.6-0.5-0.8-1.1C1285.7-287.3,1286.7-287.3,1286.8-286.3z"/>
	<path class="st7" d="M1531.1-182.8c0.1,0.1,0.3,0.3,0.4,0.4c-0.4,0.8-0.7,2.3-1.7,2.7C1529.5-180.7,1529.5-182.3,1531.1-182.8z"/>
	<path class="st7" d="M1224.2-314.6c1.4,1,0,2.5-1,2.5C1222.3-313,1223-314.3,1224.2-314.6z"/>
	<path class="st7" d="M1242.5-289.3c-0.7,1-1.4,0.4-2.1,0.4C1239.9-290.3,1242-290.9,1242.5-289.3z"/>
	<path class="st7" d="M1500.8-124.1c-1.8,0.8-3.6,1-5.4,1.6c-0.6-0.3-0.2-0.6-0.3-0.9c0.8-0.1,1.5-1.6,2.4-2.2
		C1498.4-125.7,1501-125.7,1500.8-124.1z"/>
	<path class="st7" d="M1516.4-37.3c-0.8,0.1-1.9-0.2-2.2-1.3C1514.9-39,1516.1-38,1516.4-37.3z"/>
	<path class="st7" d="M1504.1-39.6c-1.4,0.4-2.8,0.5-4.1-1.3C1501.5-41.8,1502.7-40.6,1504.1-39.6z"/>
	<path class="st7" d="M1452.3-88.2c-1.2,1-2.4,1.5-3.4,0.5c0.2-0.2,0.3-0.4,0.2-0.7C1450.2-89.1,1452.2-89.7,1452.3-88.2z"/>
	<path class="st7" d="M1143.3-342.9c-0.1,0.4,0,1-0.7,1.4c-0.7,0.1-1.4-0.9-1.4-1.6C1141.8-343.9,1142.7-344,1143.3-342.9z"/>
	<path class="st7" d="M1464.3-53.6c-0.3,0.6-2.8-0.3-4-1.3C1461.8-55.7,1463-53.6,1464.3-53.6z"/>
	<path class="st7" d="M1191-275.7c0.4,0.2,1-0.3,0.3-0.3c0.9-1.7,2.9,1.4,0.9,1.8C1191.5-274.2,1190.7-275,1191-275.7z"/>
	<path class="st7" d="M1196.4-267c0.4,0.4,0.1,0.7,0.2,1.1c-0.6,0.6-1.4,0.9-2.1,0C1194.8-266.4,1195.8-267,1196.4-267z"/>
	<path class="st7" d="M1432.8-67.1c-2.6-0.2-5.1-1.4-8-1.2c-2.5,0-5,0.9-7-2.1c2.5,1.2,5.6,2.3,7.7,0.3
		C1427.8-69.2,1430.3-69.2,1432.8-67.1z"/>
	<path class="st7" d="M1422.9-73c-1.1,0.1-2.2-0.4-3.3-1.1c0.4-0.3,0.1-0.6,0.2-0.9C1420.9-75.5,1422.3-74.3,1422.9-73z"/>
	<path class="st7" d="M1448.5-43.7c-1.2,1.7-3.7,2.5-5.7,2.9c-1.6,0.3-3.8,0.9-4.7-0.1C1441.6-40.9,1445-41.4,1448.5-43.7z"/>
	<path class="st7" d="M1189.1-262.9c-0.4,4.2-7.5,2.4-5.9-0.9C1185.2-265.8,1187.7-265.3,1189.1-262.9z"/>
	<path class="st7" d="M1120.9-333.7c-0.9,1-1.8,0.3-2.6-0.1c0.3-0.6,0.3-1.1,0.4-1.7C1119.4-335.3,1120.8-334.8,1120.9-333.7z"/>
	<path class="st7" d="M1437.5-40.7c-1.4,1-4,0.8-4.9-0.1C1434.1-41.1,1435.8-40.5,1437.5-40.7z"/>
	<path class="st7" d="M1179.4-242.7c0.4-0.3,1.3-0.1,0.5-0.8C1182.7-244.5,1180.4-239.9,1179.4-242.7z"/>
	<path class="st7" d="M1465.1,13.4c4.3,2.8-0.9,8.3-3.6,5C1459.7,16.4,1462,11.4,1465.1,13.4z"/>
	<path class="st7" d="M1431.1-18c-0.2-0.5,1.6-2.7,2.7-2.7C1434.3-19.4,1431.9-19.2,1431.1-18z"/>
	<path class="st7" d="M1143.5-268.5c-0.2,0.4-0.5,0.2-0.6,0.3c-0.3-0.4-0.3-0.7,0.1-1.1C1143.2-269.1,1143.5-268.8,1143.5-268.5z"/>
	<path class="st7" d="M1430.1-17.7c0.1,0.4-0.4,0.9-0.8,0.5c0.5,2.7-2.4,3.5-4.2,1.9c0.4-0.6,0.8-0.5,1.2-0.9
		c0.1-0.4-0.1-0.7-0.5-1.1c0.5-0.1,1-0.1,1.5-0.3c0.3,0.4,0,0.6,0.6,0.9C1428.5-17,1429.3-17.8,1430.1-17.7z"/>
	<path class="st7" d="M1296.9-118.6c0,0.3-0.4,0.6-0.7,1c-0.3-0.4-0.6-0.6-0.6-0.9C1296-119.1,1296.5-119.2,1296.9-118.6z"/>
	<path class="st7" d="M1409.3-27c0.1,1.1,0.6,2.2,0.2,3.4c-1.4-1-0.6-1.9-1.1-2.8C1408.8-26.8,1409-26.5,1409.3-27z"/>
	<path class="st7" d="M1112.2-282c-0.8,0-1.7-1.2-1.5-1.9C1112.4-286.1,1114.7-282.7,1112.2-282z"/>
	<path class="st7" d="M1402.9-26.1c0.4,0.4,0.4,0.9,0.1,1.2c-0.3-0.3-0.6-0.6-0.9-0.9C1402.4-26.5,1402.6-25.6,1402.9-26.1z"/>
	<path class="st7" d="M1137.9-225.7c0.2,2.1-2.8,1.2-1.8-0.5C1136.9-226.5,1137.3-226.4,1137.9-225.7z"/>
	<path class="st7" d="M1076.2-292.2c0.1,0.2-0.3,0.4-0.2,0.7c-0.9,0.6-1.8,0.8-2.7-0.2C1074.3-292.7,1075.3-293.6,1076.2-292.2z"/>
	<path class="st7" d="M1374.8-21c0.2,1.8,0.4,3.6-1.1,5.4C1372.2-17,1374.5-19.2,1374.8-21z"/>
	<path class="st7" d="M1092.8-259.8c-0.6,0.5-1.3,0.5-1.8-0.3C1091.1-261.9,1093.5-261.4,1092.8-259.8z"/>
	<path class="st7" d="M1373.9-4.7c0.1,0.2,0.1,0.4,0.2,0.5c-0.4,0.5-0.7,0.4-1.1-0.1C1373.4-4.6,1373.6-4.7,1373.9-4.7z"/>
	<path class="st7" d="M1399.8,26c0.1,0.1,0.3,0.3,0.4,0.4c-0.3,0.6-0.5,0.1-0.8,0.2C1399.1,26.3,1399.6,26.2,1399.8,26z"/>
	<path class="st7" d="M1073.9-266.1c0.3,0.3-0.1,0.6-0.4,0.9C1072.5-265.6,1073.4-266,1073.9-266.1z"/>
	<path class="st7" d="M1513.2,39.5c0.2,0.2,0.4,0.4,0.6,0.6c-0.1,0.1-0.2,0.2-0.1,0.4c-0.5,0.5-1,0.1-1.4-0.4
		C1512.5,39.9,1512.8,39.6,1513.2,39.5z"/>
	<path class="st7" d="M1343.5-18c-0.4,0-0.4-0.7-1-1.1C1343.6-21.1,1345.5-18.4,1343.5-18z"/>
	<path class="st7" d="M1374.7,20.7c-1,0-1.5-0.9-1.7-1.9C1374.3,17.2,1376.1,19.7,1374.7,20.7z"/>
	<path class="st7" d="M1367.3,13.6c-0.6,0.4-1,0.7-1.5,0.3C1364.9,12.6,1367.6,11.9,1367.3,13.6z"/>
	<path class="st7" d="M1162.6-147.7c0.2,0.4-0.1,0.6-0.5,0.9c-0.3-0.4-0.3-0.7,0.1-1.1C1162.4-147.6,1162.5-147.6,1162.6-147.7z"/>
	<path class="st7" d="M1340.2-13.2c0,2.3-0.5,4.7-1.1,6.9C1339.5-8.7,1339-11,1340.2-13.2z"/>
	<path class="st7" d="M1142.5-159c-0.6,0.1-1.1,0.7-1.8,0C1141.4-158.8,1141.9-159.7,1142.5-159z"/>
	<path class="st7" d="M1013.7-297.5c0,0.1,0.1,0.4,0.3,0.6c-0.4,0.5-0.7,0.4-1.1-0.1C1013.2-297.3,1013.4-297.4,1013.7-297.5z"/>
	<path class="st7" d="M1491.2,124.3c0.4,0.4,0.5,0.8,0.1,1.2c-0.6-0.1-0.8-0.2-1.1-0.8C1490.6,124.5,1490.9,124.3,1491.2,124.3z"/>
	<path class="st7" d="M1160.8-132.4c0.4,0.6,0.3,1.1-0.4,1.6C1160.3-131.3,1160.1-131.9,1160.8-132.4z"/>
	<path class="st7" d="M1128.9-165.7c0.9-0.1,0.3,1.6-0.5,1.5C1127.9-165.1,1129.2-165,1128.9-165.7z"/>
	<path class="st7" d="M1354.2,27.9c0.3,0.3,0.5,0.5,0.8,0.9c-0.2,0.4-0.1,0.8-0.7,1.1C1354,29.3,1353.6,28.6,1354.2,27.9z"/>
	<path class="st7" d="M1154.6-123.2c-0.2,0.2-0.4,0.4-0.6,0.6c-0.6,0-0.8-0.7-1-1.1C1153.5-124.2,1154.2-124,1154.6-123.2z"/>
	<path class="st7" d="M1147-126.2c-1,1.3-1.7,1.4-2.8,1.4c-0.5-0.4-0.3-0.6-0.6-0.9C1144.7-126.8,1145.8-126.9,1147-126.2z"/>
	<path class="st7" d="M1121.6-152.8c-1.1,1.5-3.3,1.4-4.8,2.1c0.4-1.1,2.6-0.7,2.8-1.7C1120.1-151.8,1120.6-152.5,1121.6-152.8z"/>
	<path class="st7" d="M1029.5-248.7c0.3,0.5,0.6,1,0.1,1.5c-0.1-0.1-0.2,0.1-0.4,0.1c-0.6-0.4-0.8-0.9-0.5-1.4
		C1029-248.9,1029.2-248.4,1029.5-248.7z"/>
	<path class="st7" d="M1140.9-124.9c0.6,1.5,0.8,3-0.1,4.4c-2-1.2-0.2-2.8-0.7-3.9C1140.4-124.8,1140.7-124.9,1140.9-124.9z"/>
	<path class="st7" d="M1462.8,51.5c0.1,0.2,0.1,0.4,0.3,0.6c-0.4,0.6-0.7,0.1-1.1,0.2C1461.9,51.7,1462.5,51.6,1462.8,51.5z"/>
	<path class="st7" d="M1132.8-128c0.4-0.8,0.6-2,1.5-3.2C1134.1-130.1,1133.8-128.5,1132.8-128z"/>
	<path class="st7" d="M1116-150.8c0.3,0.3-0.4,0.6-0.5,0.8c-0.1-0.1-0.2-0.2-0.4-0.1C1114.8-150.7,1115.7-150.3,1116-150.8z"/>
	<path class="st7" d="M1133.1-128c0,0.6-0.6,1.3-0.6,1.8C1131.9-126.2,1132.4-127.9,1133.1-128z"/>
	<path class="st7" d="M1001.1-269.4c2.2,1.8,2.8,5.1-0.6,5.5c-1.1,0.1-4.7-0.3-5.8-2.1c-0.8-1.3-0.1-3.4,1.8-4.4
		C997.5-271.1,999.6-270.6,1001.1-269.4z"/>
	<path class="st7" d="M1465.7,63.2c-0.4,0-0.8-0.5-0.8-0.9c0.2-0.2,0.4-0.3,0.6-0.6C1466.1,62.1,1466.3,62.6,1465.7,63.2z"/>
	<path class="st7" d="M1480.3,52c-0.7,2.5-4.1,3.4-4.8,0.6C1476.7,50.8,1478.9,50.1,1480.3,52z"/>
	<path class="st7" d="M1474.4,79.4c1.1-1.1,3.2,0.6,1.3,1.4C1475.1,80.9,1474.3,80.1,1474.4,79.4z"/>
	<path class="st7" d="M1461.6,151.1c0.3,0.4,0.6,0.6,0.6,1c-0.5,0.6-1,0.7-1.5,0.1C1460.8,151.5,1461,151.5,1461.6,151.1z"/>
	<path class="st7" d="M1117.6-125.3c-0.8,0.3-2.9,0.9-4.1,0.2C1114.9-125.9,1115.8-125.2,1117.6-125.3z"/>
	<path class="st7" d="M1111.2-124.9c-0.2,2-4.9-0.3-3.4-2.3C1109.1-125.8,1109.9-124.8,1111.2-124.9z"/>
	<path class="st7" d="M1097.2-135.3c-0.3-0.4-0.6-0.2-0.8-0.7c0.2-0.4,0.3-0.7,0.6-1.1C1097.7-136.8,1098.3-136,1097.2-135.3z"/>
	<path class="st7" d="M1078.6-156.9c-0.2,0.8-0.9,1.2-1.6,1c-0.4-0.6-0.1-1.1,0.4-1.7C1077.9-157.4,1078.2-157.5,1078.6-156.9z"/>
	<path class="st7" d="M1293.4,17.3c0.3,0.6-0.7,0.4-0.6,1C1292,18.4,1293,17.4,1293.4,17.3z"/>
	<path class="st7" d="M1057.7-176.4c-0.4,0.5-0.6,0.3-0.9,0.6c-0.3-0.4-0.8-0.8-0.8-1.1C1056.2-177.9,1057.5-177.3,1057.7-176.4z"/>
	<path class="st7" d="M1453.7,87.5c-2-1.4-0.2-4,1.1-4C1456.5,84.3,1455.5,87.3,1453.7,87.5z"/>
	<path class="st7" d="M975.1-261.3c0.4,0.2,0.3,0.4,0.3,0.6c-0.2,0.2-0.5,0.1-0.8-0.3C974.9-261,975-261.2,975.1-261.3z"/>
	<path class="st7" d="M1327.6,62.1c-0.5,0.9-1.3,1.3-2,0.1C1326,60.9,1327.7,60.8,1327.6,62.1z"/>
	<path class="st7" d="M1077.6-145.7c-0.2,0.4-0.4,0.3-0.6,0.3c-0.3-0.4-0.3-0.7,0.1-1.1C1077.3-146.4,1077.6-146.1,1077.6-145.7z"/>
	<path class="st7" d="M1079-139.4c-0.8-0.4-1.1-1.6,0-2.2C1080.2-141.7,1080.7-139.9,1079-139.4z"/>
	<path class="st7" d="M1104.2-108.6c0.3,0.4,0.2,0.6-0.2,0.9C1103.4-108.1,1103.8-108.7,1104.2-108.6z"/>
	<path class="st7" d="M1086.1-125.6c0,0.3-0.2,0.5-0.5,0.8c-0.3-0.3-0.5-0.5-0.8-0.8C1085.2-126.1,1085.7-126.2,1086.1-125.6z"/>
	<path class="st7" d="M1449.9,101.5c0.1-0.6,0.4-1.4,1.2-1.5C1453.5,100.5,1451.3,103.8,1449.9,101.5z"/>
	<path class="st7" d="M1088.8-118.6c-0.4-0.1-0.6-0.4-0.6-0.6C1088.8-120,1089.7-119.3,1088.8-118.6z"/>
	<path class="st7" d="M1066.8-131.2c-0.1,0.1-0.2,0.2-0.1,0.4c-1.1,1-2.9,0.6-3-0.8C1064.7-132.5,1066.3-132.9,1066.8-131.2z"/>
	<path class="st7" d="M1029.5-163.3c-0.7,1.3-2.3,0.1-1.7-0.7C1028.5-164.9,1029.5-164,1029.5-163.3z"/>
	<path class="st7" d="M1131.5-47.1c-0.4,0.4-0.8,0.2-1.2,0.3c-0.5-0.5-0.2-0.5-0.8-0.8C1129.9-49.2,1132.2-48.5,1131.5-47.1z"/>
	<path class="st7" d="M1404.7,75.5c-0.4,0.3-0.6,0.6-0.9,0.9c-0.7,0-1.4-0.9-1.5-1.5C1402.8,73.7,1404.3,74.3,1404.7,75.5z"/>
	<path class="st7" d="M1173.5,2.2c-0.4,0.6-0.7,0.8-1.4,1c-0.3-0.4-0.8-0.8-0.8-1.1C1171.8,1.1,1173.2,1.2,1173.5,2.2z"/>
	<path class="st7" d="M1063.3-116.6c0.4,0.3,0,0.6,0.2,0.8c-0.6,0.3-0.4-0.1-0.7-0.4C1063-116.3,1063.2-116.4,1063.3-116.6z"/>
	<path class="st7" d="M1403.1,83.8c0.3,0.4,0.5,0.6,0.3,0.9c-0.4,0.3-0.7,0-1.1-0.4C1402.8,84,1402.6,84.2,1403.1,83.8z"/>
	<path class="st7" d="M1123.3-43.2c-0.1,1.6-1.7,2.3-2.6,3.4C1120.6-41.2,1122.4-42.4,1123.3-43.2z"/>
	<path class="st7" d="M1117.3-36.6c-0.1,1.1-0.4,2.5-1.7,3.1c-0.2-0.5-0.6-0.1-0.8-0.6C1115.1-35.1,1116.1-36.3,1117.3-36.6z"/>
	<path class="st7" d="M1056.9-99.1c0,0.3,0.3,0.6,0.1,0.9c-0.4,0.5-0.6-0.1-1,0.1C1055.8-98.6,1056.3-99.2,1056.9-99.1z"/>
	<path class="st7" d="M1411.4,115.5c-0.9-0.5-2-1.3-2.2-2.4C1410.7,111.5,1413.4,114.3,1411.4,115.5z"/>
	<path class="st7" d="M969-191.3c-0.6,0.6-1.5,0.3-1.4-0.4C968.1-192.4,968.7-191.9,969-191.3z"/>
	<path class="st7" d="M1127.5-16.2c-0.3,0.6-0.6,0.1-0.9,0.6c-0.3-0.5-0.7-0.9-0.1-1.2C1126.8-17,1127.1-16.6,1127.5-16.2z"/>
	<path class="st7" d="M1054.4-91.4c0.1,0.1,0.3,0.4,0.6,0.6c-0.1,0.1-0.4,0.3-0.5,0.5C1053.8-90.8,1053.8-91.1,1054.4-91.4z"/>
	<path class="st7" d="M1401.1,113.5c0.1,0.1,0.3,0.3,0.3,0.4c0,0.3-0.2,0.5-0.6,0.8c-0.5-0.2-0.1-0.6-0.5-0.8
		C1400.6,113.6,1400.8,113.7,1401.1,113.5z"/>
	<path class="st7" d="M1396.1,110.6c0,0.8-0.7,1.7-1.7,1.5c-0.8-0.5-0.6-1-0.9-1.5C1394.4,109.5,1395.1,109.3,1396.1,110.6z"/>
	<path class="st7" d="M1116-13.4c-1,1.5-2.3,0.3-3.4,0.2C1113.7-13.2,1114.9-15.2,1116-13.4z"/>
	<path class="st7" d="M1007.5-130.8c0.4,0.2,0.4,0.6,0.5,0.8c-0.4,0.3-0.7,0.3-1.1-0.1C1007-130.3,1007.1-130.6,1007.5-130.8z"/>
	<path class="st7" d="M1172.2,51.9c1.3-1.7,3.2,0,2.5,1.1C1174.1,53.8,1172.3,53.3,1172.2,51.9z"/>
	<path class="st7" d="M972.6-164.3c0.4,0.2,0.3,0.4,0.4,0.7c-0.1,0.1-0.3,0.3-0.4,0.4c-0.4-0.1-0.6-0.4-0.7-0.7
		C972.2-164.2,972.5-164,972.6-164.3z"/>
	<path class="st7" d="M1152.2,39.4c-0.2,0.1-0.6,0.1-0.4,0.4c-3-0.5-4.5-4.5-2.4-6.2c1.1-1,3.8-0.8,3.7,1.2c0,0.8-1.1,1.2-1.3,2
		C1151.5,37.7,1151.9,38.3,1152.2,39.4z"/>
	<path class="st7" d="M1189.9,77c-0.3-0.6-0.8,0.1-1.1-0.7C1188.6,73.9,1192.3,75.3,1189.9,77z"/>
	<path class="st7" d="M1156.9,42.2c-0.4,0-0.8-0.7-1.3-1.1c0.2-0.8,0.5-0.8,1.3-1.4C1157.5,39.9,1158.7,41.7,1156.9,42.2z"/>
	<path class="st7" d="M1028.9-89c0.5,0.4,0.1,0.6,0.5,0.8c-1.4,1.3-2.2,2.9-2.8,4.4c-0.4,0-0.8,0.1-1.2-0.2
		C1025.5-86.1,1026.8-87.9,1028.9-89z"/>
	<path class="st7" d="M1156.6,53c1.9-1.3,3.3,1.4,2.2,2.4C1157.5,56.4,1156.1,54.4,1156.6,53z"/>
	<path class="st7" d="M1161.8,59.4C1163.7,56.1,1164.6,61.8,1161.8,59.4L1161.8,59.4z"/>
	<path class="st7" d="M1172.2,70.6c-0.4,0.3-0.1-0.4-0.6-0.6c0.3,0,0.6-0.1,0.8-0.5c-0.1,0.4,0.6,0.9,0.1,1.2
		C1172.1,70.1,1172.1,69.7,1172.2,70.6z"/>
	<path class="st7" d="M926.3-196.2c-0.3,0.3-0.6,0.6-1,0.8c-1.1-0.2-1.4-1.6-0.6-2.1C925.3-197.2,926-196.9,926.3-196.2z"/>
	<path class="st7" d="M1029.8-78.6c0,0.4,0.4,0.9-0.2,1.2c-0.6,0-0.3-0.5-0.8-0.8C1029.1-78.7,1029.5-78.4,1029.8-78.6z"/>
	<path class="st7" d="M1106.8,6c0,0.3,0.3,0.6,0.3,0.9c-0.2,0.2-0.4,0.1-0.6,0.3C1106.1,6.8,1106.3,6.4,1106.8,6z"/>
	<path class="st7" d="M941.5-169.9c0.2,0.2,0.1,0.4,0.3,0.6c-0.4,0.5-0.9,0.7-1.2,0.1C940.9-169.7,940.9-169.7,941.5-169.9z"/>
	<path class="st7" d="M965.8-143.4c0.2,0.2,0.4,0.4,0.6,0.6c-0.4,0.6-0.8,0.3-1.2-0.2C965.4-143,965.6-143.2,965.8-143.4z"/>
	<path class="st7" d="M1013.6-71.4c0.5,0.4,0.6,0.7,0.8,1.1c-0.6,0.7-1.1,0.5-1.6,0C1012.7-71.2,1013.3-70.7,1013.6-71.4z"/>
	<path class="st7" d="M1121,47c0.2,0.2,0.1,0.4,0.4,0.7c-0.4,0.3-0.7,0.3-1.1-0.1C1120.3,47.3,1120.6,47,1121,47z"/>
	<path class="st7" d="M1017.2-56.5c-0.3,0.4-0.6,0-0.8,0.2c-0.3-0.4-0.3-0.7,0.1-1.1C1016.8-57.1,1017.3-57.1,1017.2-56.5z"/>
	<path class="st7" d="M1463.7-402c-0.7,0.6-2.6,2.8-3.6,1.6c0.2-0.5,1.9-1.5,2-0.8c0.1-0.3,0.9-0.5,0.5-0.8
		C1463-402.1,1463.2-402,1463.7-402z"/>
	<path class="st7" d="M1672.9-326.8c-3.5-0.5-6.9-3.5-10.3-5.2C1665.6-331.4,1669.6-329.2,1672.9-326.8z"/>
	<path class="st7" d="M1314.6-383.3c-1,1.7-2.9,0.7-4.3,0.6c-0.3-0.9,1.2-0.3,0.9-0.9c0.1-0.1,0.6,0.3,0.4,0.4
		c0.2,0.2,0.5-0.3,0.8-0.2C1311.3-383.8,1314-384.4,1314.6-383.3z"/>
	<path class="st7" d="M1251.4-247.3c1.2,0.9-0.4,2.9,0.4,4.2c-1.6,1.8,0.2,5.7-2.6,6.1c-0.2-2.7,1.6-5.4,1.2-7.7
		c1.3-0.5-0.1-1.6,0.9-1.3c0.1-0.3-0.2-0.2-0.4-0.4C1250.9-246.4,1251.4-246.6,1251.4-247.3z"/>
	<path class="st7" d="M1170.4-312.6c-1.3,1.1-2.5,0.2-3.7-0.8c-4.1-0.5-8.2-1-12.2-2.3c0.4-0.1,0.6-1,0.2-0.7c2-0.4,6.3,1.5,9.2,2.1
		C1166.3-313.6,1168.9-314.4,1170.4-312.6z"/>
	<path class="st7" d="M1451.8-59.2c-1.2,0.1-2.3-0.8-3.5-1.3C1449.4-60.2,1450.6-60.5,1451.8-59.2z"/>
	<path class="st7" d="M1504-80.3c1-0.6,3.7,0.8,4.7,1.5c2.5,0,4.9,2,7.4,3c0.3,0.1,0.1,0.4,0,0.3C1512-76.5,1508-78.6,1504-80.3z"/>
	<path class="st7" d="M1135.7-205c1.1-3.5,6.3-3,9-3.1c1,0,1.8-0.7,2.6,0.1c0.9,0.9,0.7,3.3,0,3.9
		C1144.8-202,1138.2-202.4,1135.7-205z"/>
	<path class="st7" d="M1157.5-124c0,0.4,0.7,2.1,1,3c-0.8,0.9-1.6,1.3-2.3,0.5C1156.4-121.5,1156.9-123.3,1157.5-124z"/>
	<path class="st7" d="M1415-73.1c-2.5-1.2-5.8-3.8-6.1-6.7C1411.8-78.5,1412.5-75,1415-73.1z"/>
	<path class="st7" d="M1140.7-142.4c0.6,0.6,0.1,1.1,0.5,1.6c0.3-0.1,0.4,0.1,0.7,0.1c0.8-1.3,1.4-6-0.8-4.7
		c-0.7,0.4-0.6,1.7-0.8,2.5c-0.5-0.6-0.2,0.4-0.8,0.5C1140.2-141.5,1140.3-142.9,1140.7-142.4z"/>
	<path class="st7" d="M1329.8,19.8c1.2-1.3,1.9-3.5,2.3-4.5c-0.1-0.1-0.3-0.3-0.4-0.4c-2,2.2-2.7,4.4-6.4,6.7
		C1326.8,23,1328.8,21,1329.8,19.8z"/>
	<path class="st7" d="M1423.2,76.2c1.2,1.9,0.7,3.7,0.1,5.4c2.1,3.3,5.9,4.2,8.3,0.6C1432.2,78,1426.4,75.2,1423.2,76.2z"/>
	<path class="st7" d="M1123.2-69.8c3.5,0.5,4.2-4.4,3-5.6c-1.3-1.4-3.9-1.8-5.3-0.3C1119.2-73.7,1120.6-70.1,1123.2-69.8z"/>
	<path class="st7" d="M1145.4-45.9c-0.1-0.7-0.4-1.6-1.1-2c-1.3-0.8-2.4,0.8-3.9,1.3c-1.8,0.7-5.4-0.3-5.5,2.1
		c0.3,0.4,0.6,0.6,0.6,0.9c1.3,0.6,2.6-0.5,3.9-0.7c2,1.9,4.2,1.5,5.9,0.3c1.5,1.5-1.2,2.9-1.2,4.4c2.6,1,3.6-3.3,5.1-4.5
		C1148.6-46.2,1146.6-44.6,1145.4-45.9z"/>
	<path class="st7" d="M1009-112.6c-0.1-0.2,0.3-0.4,0.5-0.6c0.1,0.1,0.3,0.4,0.5,0.5C1009.7-112.1,1009.4-112.9,1009-112.6z"/>
	<path class="st7" d="M1094.3-380.8c1.9-1.2,4.8-1.6,5.2-3.8c-0.6-1.4-2.9-1.9-3.7-0.1c0.3-0.3-0.2,1.6-0.6,2.1
		c-2.1,1-4.5,1.2-5.1,3.7c-0.7,0.1-1.2-0.7-1.5,0.1c0.4-0.1-0.4,0.3,0,0.6c-1.8,1.2-4.6,2.8-6.6,4.8
		C1085.6-375.9,1090.5-378.6,1094.3-380.8z"/>
	<path class="st7" d="M1552.3-280.2c2.3-0.1,5.3-3.2,6.4-5.1c1.9-3.2,3.3-7,5.6-10.3c2.9-4.1,6-8.6,7.5-13.1c1-2.8,1.3-5.9,1.5-8.6
		c0.4-3.2,1.5-5.9,1.9-8.7c-1-1.4-2.1-0.9-2.9-1.9c-0.9,0.8-0.4,1.6-0.6,2.4c0.3-0.3,0.6,0.1,0.8,0.4c0.6,4.5-0.2,8.6-1.1,12.8
		c0.3,0.5-0.2,0.5,0.5,0.8c-0.6,0.4-0.9,1.9-1,2.8c-0.5-0.4-0.4,0-0.7,0.4c-0.4,3.6-3.8,7-5,10.2c-0.6,0.2-0.9,0.8-1.8,1.5
		c-2.9,3.9-5.1,8.2-7.4,12.1c-2,0.7-2.1,1.7-3.8,1.9c-1.9,0.3-3.7-1.4-5.4-1s-3.4,3.1-3.5,4.6c1.5-1,2-2.2,3.7-2.6
		C1549-281.4,1550.7-280,1552.3-280.2z"/>
	<path class="st7" d="M1079.4-430.5c1.4-1.7-0.4-3.4-0.4-5.1c1.2-0.9,2.7-0.4,4-0.6c4.6-0.6,9.1-2,13.5-1.5c1.1,0.2,2.2,0.8,3.3,0.8
		c1,0,2-0.8,3-0.4c-3,2.4-7.7,0.5-10.7,2.9c2.8,1.5,5.7,0.3,8.9,0c3.1-0.2,6.9,0.4,9-0.5c2.8-1.3,4.6-5.5,1.6-6.9
		c-3.2-1.6-10,4.8-11.9-1.6c-0.4,0.3-0.6,0.6-0.9,0.1c-1.1,3-3.9,3.1-6,2.4c-0.9,0.6-0.5,1.1-1.2,1.5c-2.9,0.2-5.4,0.4-9.1,0.9
		c-1.7,0.3-5.8,0.4-7,1.3C1073.4-435.4,1075.4-429.6,1079.4-430.5z"/>
	<path class="st7" d="M1089.3-151.4c-0.1,0.1-0.3,0-0.4-0.1c-0.6,0.2-0.6,0.5-1.1,1c0.1,0.9,0.9,2.3,1.9,1.8
		C1089.9-149.6,1090.1-150.4,1089.3-151.4z"/>
	<path class="st7" d="M1093.3-144.8c0.9-1.8-1.6-4.8-3.6-3.9c-0.4,0.9-0.6,2-0.7,2.9c-0.8,2.2-2.4,3.7-1.6,6.1
		c2.1-0.5,1.3-2.5,2.6-3.6C1090.8-144,1092.3-143.3,1093.3-144.8z"/>
	<path class="st7" d="M1409.2-452.7c-2.4,1-4.3,2.1-6.4,4.2c-0.1,0.4,0.4,0.7-0.1,1.1c0.8,1.1,2,1.4,1.5,2.5
		c-4.3,2.8-1.5,5.8-1.9,8.7c-0.9,1-1.2,2.1-1.5,3.2c-1.5,1-1.5,2.2-1.3,3.2c-0.8,0.5-2.2,2.6-2.3,3.9c-0.4,0.3,0-0.7-0.6,0
		c-0.5,0.3,0.8,0.1,0.3,0.6c-0.9-0.2-0.8,0-1.4-0.4c-2.9,2-1.7,6.7-4.6,8.6c0.3,0.9,0,0.4-0.4,0.7c-1.1,1.2,0.1,4.2,2.4,3.7
		c0.6-0.4,1.2-1,1.3-1.4c0.9-2.7,1.4-5.4,2.4-8c0.7-1.9,2.1-3.4,3.2-5.5c0.8-1.5,1.3-3.1,2.4-4.7c2.3-3.5,4.4-5.2,5.2-8.6
		c1.3-5.2,2.6-9.5,8.7-13.4c-1.5-1.3-3,2.4-4.3,2.6C1411.1-452.7,1409.9-451.8,1409.2-452.7z"/>
	<path class="st7" d="M1129-155.3c0.1,0.1,0.3,0.3,0.4,0.4c-1.2,0.6-2.3,1.2-3.5,1.4c0-0.3-0.1-0.4-0.3-0.6
		C1126.7-155.3,1127.8-154.3,1129-155.3z"/>
</g>
<g class="st8">
	<path class="st7" d="M1198-56.7c0.3,1.4,0.3,2.7-0.8,3.4C1197.3-54,1196.7-56.3,1198-56.7z"/>
	<path class="st7" d="M891.7-186.8c0.5,1-1,1.3-0.9,0.1C891.1-186.9,891.4-186.9,891.7-186.8z"/>
	<path class="st7" d="M1227,73.2c0.3,0.4-0.1,0.7-0.6,0.8c-0.3-0.4-0.2-0.8,0.3-0.9C1226.9,73.2,1226.9,73.2,1227,73.2z"/>
	<path class="st7" d="M1223.4,85.4c-1,1-2.3,0-2.8-0.9C1221.6,83.6,1223.6,84.2,1223.4,85.4z"/>
	<path class="st7" d="M1161-114.9c-0.5,0.2-0.8-0.1-0.9-0.5c0.3,0.1,0.4,0.1,0.5-0.4C1161-115.9,1161.1-115.3,1161-114.9z"/>
	<path class="st7" d="M1294.7,215c-2.6,3.8-8.1-0.9-4.6-2.6C1291.9,211.6,1294.4,213.2,1294.7,215z"/>
	<path class="st7" d="M1182.8,39.8c0.5-0.9,2.2-1.2,3.6-1.7c0.2,0.3-0.1,0.3-0.3,0.5c1.6-0.2,4.4,0.4,4.8-1.8
		c1.5,0.3,3.5-0.5,4.1,1.4C1192.9,40.6,1186.1,39.1,1182.8,39.8z"/>
	<path class="st7" d="M1198.9,56.8c-0.1,0.4-0.1,1-0.9,1c-0.1-0.2-0.1-0.3-0.3-0.3C1197.5,56.7,1198.3,56.5,1198.9,56.8z"/>
	<path class="st7" d="M1168.6-21.6c0.1,0.2,0.1,0.4,0.2,0.6c-0.2,0.4-1.1,0.7-1.2,0C1167.9-21.6,1168.1-21.2,1168.6-21.6z"/>
	<path class="st7" d="M1331.8,179.3c-0.9,0.3-1.6,0.3-1.9-0.4C1330.5,178.1,1332.1,178.4,1331.8,179.3z"/>
	<path class="st7" d="M1179.6,69.3c-1.7,0-3-0.5-3.6-2.3c0.6,0,0.2-0.6,1.1-0.9C1177.9,67.2,1178.8,68.2,1179.6,69.3z"/>
	<path class="st7" d="M1128-95c-0.7,0.7-1.5,0.2-1.4-0.8C1127.3-96,1127.9-95.9,1128-95z"/>
	<path class="st7" d="M1143.5-35.1c0.1,0.2,0.1,0.4,0.2,0.6c-0.3,0.4-1.3,0.6-1.2-0.2C1142.7-34.9,1143.1-35,1143.5-35.1z"/>
	<path class="st7" d="M1161.4,60.8c0.2,0.3,0.1,0.5,0,0.7c-0.5,0.3-0.8,0.1-0.9-0.5C1160.8,60.9,1161.1,60.8,1161.4,60.8z"/>
	<path class="st7" d="M1292.6,176.9c-0.5,0.3-0.7-0.2-0.8-0.8c0.3-0.1,0.5-0.1,0.5-0.4C1292.8,175.6,1293.1,176.8,1292.6,176.9z"/>
	<path class="st7" d="M1309.6,247.7c0.1,0.3,0.2,0.6,0.3,0.9c-0.5,0.5-0.9,0.3-1.1-0.5C1308.9,247.9,1309.2,247.7,1309.6,247.7z"/>
	<path class="st7" d="M1076.8-138.5c0.2,0.5,0.2,0.8-0.3,0.9C1076.3-138,1076.2-138.5,1076.8-138.5z"/>
	<path class="st7" d="M1298.5,253.9c-0.6,0.3-0.9-0.6-0.3-0.8C1298.4,253.7,1298.7,253.6,1298.5,253.9z"/>
	<path class="st7" d="M980-193.5c0.1,0.2,0.1,0.4,0.2,0.6c-2.6,0.9-4,1.2-5.6,3c-0.3-0.5,0.1-0.6-0.2-1.1
		C976.2-192.5,977.3-193.6,980-193.5z"/>
	<path class="st7" d="M1073.8-71.9c0.2,0.5-1,1-1,0.1C1073.3-72.2,1073.4-71.7,1073.8-71.9z"/>
	<path class="st7" d="M1220.5,195c0.1,0.2,0.2,0.5,0.3,0.8c-1.2,0.2-1.8,0.6-3,0.5C1216.9,195.3,1219.7,194.8,1220.5,195z"/>
	<path class="st7" d="M1285.5,269.1c0,0.1,0.1,0.2,0.1,0.4c-0.1-0.1-0.2,0.2-0.1,0.3c-0.1,0-0.3,0.1-0.4,0.1c0-0.1-0.2-0.2-0.3-0.1
		c0-0.1-0.1-0.2-0.1-0.4c0.2-0.1,0.2-0.2,0.1-0.3c0.1,0,0.2-0.1,0.4-0.1C1285.4,269.2,1285.5,269.2,1285.5,269.1z"/>
	<path class="st7" d="M1105,79.2c0.8,1.7-0.8,3.2,0,5.5c-0.5-0.5-1.2-1.2-0.7-1.8c-0.9,0.2-1.9,0.4-1.8,1.1c-1.1-2.5,1.8-2.4,2-4.6
		c-0.7-0.7-0.3-1.8-1-2.6c0.4-0.4,1.1-0.6,0.9-1.3C1107.2,75.2,1107.2,78.4,1105,79.2z M1104,82.6c-0.1-0.3,0.5-0.3,0.7-0.5
		c-0.1-0.3-0.2-0.6-0.3-0.9C1103.8,81.3,1103.4,82.4,1104,82.6z"/>
	<path class="st7" d="M1049-96C1051.8-98,1050.2-93.2,1049-96L1049-96z"/>
	<path class="st7" d="M1241,174.9c-0.3-0.1-0.7-0.1-0.7-0.6C1240.8,173.7,1241.3,174.3,1241,174.9z"/>
	<path class="st7" d="M1248.2,212.6c0.1,0.2,0.1,0.4,0.2,0.6c-0.3,0.2-0.5,0.1-0.7,0C1247.5,212.8,1247.8,212.6,1248.2,212.6z"/>
	<path class="st7" d="M1033.6-75c-0.5,0.3-1.1,0.3-1.1-0.5c0.3,0.2,0.8,0.1,0.7-0.3C1033.6-76,1033.8-75.3,1033.6-75z"/>
	<path class="st7" d="M1043.3-31.2c0.1-0.6,1.1-1.2,1.4-1.2C1045.9-31.4,1044-30,1043.3-31.2z"/>
	<path class="st7" d="M1041.3-41.6c-0.8,0.3-1.1-0.1-1.2-0.9C1040.5-43.6,1042.5-42.5,1041.3-41.6z"/>
	<path class="st7" d="M1038.8-25.7c-0.8,0.6-2.1-0.2-2.5-1.1C1037.3-26.7,1038-26.2,1038.8-25.7z"/>
	<path class="st7" d="M1218.4,206.5c-1-0.5-1.7-1.7-2.4-2.8C1216.9,204.4,1217.8,205.1,1218.4,206.5z"/>
	<path class="st7" d="M1018.7-71.5c0.1,0.6,0.1,1.1-0.9,1.2c-0.1-0.3-0.3-0.3-0.4-0.7C1018.1-71.1,1018.1-71.8,1018.7-71.5z"/>
	<path class="st7" d="M1201.3,172.1c2.3-0.7,4.2,2.8,1.9,3.2C1202.1,175.4,1201.3,173.6,1201.3,172.1z"/>
	<path class="st7" d="M1237,289.1c0,0.4-0.3,0.9-0.8,0.7C1235.8,289.1,1236.6,288.9,1237,289.1z"/>
	<path class="st7" d="M1031.5,0.2c-0.6,0.3-0.9,0.1-1.1-0.5c0.8-0.1,0.3-0.8,0.9-1C1031.8-1,1031.3-0.4,1031.5,0.2z"/>
	<path class="st7" d="M1059.7,177.1c-0.9,0-1.6-0.2-2.1-1C1058.4,176.1,1059.3,176,1059.7,177.1z"/>
	<path class="st7" d="M1046.4,321.7c-0.8,0.8-1.6,2.7-3,1.6C1042.9,322.2,1045.4,321.7,1046.4,321.7z"/>
	<path class="st7" d="M1004.6-31.8c-1.5,3.5-8.8,1.8-6-2.1c0.8-0.3,0.1,0.7,0.3,1C999.6-35.4,1003.6-34.1,1004.6-31.8z"/>
	<path class="st7" d="M1006.8-4.7c-1.3,0.4-2.3-2.4-1-2.8C1006.3-6.6,1006.7-5.9,1006.8-4.7z"/>
	<path class="st7" d="M995.6-25c-0.8-0.8-0.3-2,0.4-2.5C997.6-27.3,997.1-24.5,995.6-25z"/>
	<path class="st7" d="M1202.6,282c0.3,0.5,0.1,0.9,0.2,1.3c-0.5,0.2-1,0.3-1.3,0.2C1201.3,282.8,1201.8,282.3,1202.6,282z"/>
	<path class="st7" d="M1200.2,276.8c-0.6,0.3-0.8,0.1-1.2,0c-0.4-0.6,0.3-0.7,0-1.2C1199.6,275.6,1200.5,276.1,1200.2,276.8z"/>
	<path class="st7" d="M968.4-108.3c0.2,0.3,0.1,0.7,0.1,0.9c-0.6,0.2-0.9,0-1.1-0.5C968-107.9,968-108.3,968.4-108.3z"/>
	<path class="st7" d="M1175.9,200.2c0.3,0.9-0.3,1.3-1.1,1.5C1174.8,201,1175,200.4,1175.9,200.2z"/>
	<path class="st7" d="M995.6-1c-0.2-0.6-0.7-0.5-0.8-1.3c0.3,0.6,1.3-0.2,0.7-0.4C996.7-3.9,997.5-1.1,995.6-1z"/>
	<path class="st7" d="M1140.5,180.6c-0.3,1.4-3.6,3.3-4.6,1.6C1135.8,180.6,1139.8,178.8,1140.5,180.6z"/>
	<path class="st7" d="M1017.6,83.3c-1.6,0.1-1.5-2.3-1.8-2.8C1016.7,81,1017.2,82.1,1017.6,83.3z"/>
	<path class="st7" d="M980.7-15.9c-0.1,0.4-0.3,0.9-0.9,0.6C979.5-15.8,980.3-16,980.7-15.9z"/>
	<path class="st7" d="M1156.4,191.1c-0.1,0.4-0.1,1-0.9,1c-0.1-0.4-0.3-0.3-0.4-0.7C1155.6,191.1,1155.9,191,1156.4,191.1z"/>
	<path class="st7" d="M900.3-90.1c-2.2,0.4-2.7-3.2-1.7-4.4C900.9-95.4,901.5-91,900.3-90.1z"/>
	<path class="st7" d="M966.2-48.4c-1.5,0.6-2.9,0.1-2.9-1.1C964.4-50,966.4-50.3,966.2-48.4z"/>
	<path class="st7" d="M907.5-125c0.5-1.1,1.8-2.2,3.5-2.2c4.3-0.2,3,6.7-1.1,5.4C908.6-122.1,908.1-123.6,907.5-125z"/>
	<path class="st7" d="M1165.4,247.3c-0.2-1.1-0.6-1.6,0.6-2.1C1166.7,245.8,1166.4,247,1165.4,247.3z"/>
	<path class="st7" d="M1164,256.4c-1.4-2.3-0.5-4.6-0.2-6.5C1165.6,251.1,1168.6,257.1,1164,256.4z"/>
	<path class="st7" d="M1012.5,131.9c0.3,0.5-0.1,0.8-0.5,0.9C1011.3,132.5,1011.8,131.5,1012.5,131.9z"/>
	<path class="st7" d="M1162.1,265.8c0.3,0.6,0,0.9-0.7,1c-0.1-0.3-0.2-0.6-0.3-0.9C1161.6,265.8,1161.9,265.8,1162.1,265.8z"/>
	<path class="st7" d="M1171.6,300.6c-0.9,0.4-1.7-0.4-1.5-1.1C1170.7,298.9,1172.3,299.6,1171.6,300.6z"/>
	<path class="st7" d="M962.9-4c-0.4,0.3-0.8,0.2-0.9-0.3c0.2-0.2,0.2-0.3,0.5-0.4C962.7-4.6,962.9-4.3,962.9-4z"/>
	<path class="st7" d="M1149.4,244c-1.5,0.9-2.6,2-4.1,2.4C1146.2,245.5,1148.2,244.3,1149.4,244z"/>
	<path class="st7" d="M965.4,21c-0.5,0.9-3.6,1.5-4,1C962.9,21.8,963.9,21.6,965.4,21z"/>
	<path class="st7" d="M1094.3-29.6c3.2-2,7,2.5,4.2,4.1c-1.5,0.8-4.7,0.5-4.6-2.1C1094.2-28.5,1095.4-28.8,1094.3-29.6z"/>
	<path class="st7" d="M972.8,66.7c-0.4,0.3-0.6-0.1-0.9,0.1c0-0.7-0.3-0.7-0.2-1.3C972.3,65.4,973.2,65.8,972.8,66.7z"/>
	<path class="st7" d="M1147.8,266.2c0.1,0.2,0.1,0.4,0.2,0.6c-0.8,0.6-1.6,1.7-2.7,1.6C1145.6,267.4,1146.3,266.1,1147.8,266.2z"/>
	<path class="st7" d="M928.8,14.2c0.8,1.5-1,2.2-2,1.8C926.4,14.6,927.6,13.8,928.8,14.2z"/>
	<path class="st7" d="M934.2,44.8c-1.1,0.6-1.5-0.3-2.1-0.6C932.3,42.8,934.6,43.2,934.2,44.8z"/>
	<path class="st7" d="M1095,305.9c-1.9-0.1-3.7-0.7-5.6-0.9c-0.4-0.5,0.1-0.7,0.1-1c0.7,0.3,2.1-0.8,3.1-0.9
		C1093.6,303.4,1096,304.5,1095,305.9z"/>
	<path class="st7" d="M1071.4,390.8c-0.7-0.3-1.6-1-1.5-2.1C1070.8,388.8,1071.3,390,1071.4,390.8z"/>
	<path class="st7" d="M1061.2,383.4c-1.5-0.3-2.7-0.8-3.1-3C1059.8,380.3,1060.5,381.9,1061.2,383.4z"/>
	<path class="st7" d="M1035.8,317.2c-1.5,0.4-2.8,0.3-3.3-1c0.3-0.1,0.4-0.3,0.4-0.6C1034.2,315.4,1036.4,315.8,1035.8,317.2z"/>
	<path class="st7" d="M868.3-46.5c-0.3,0.3-0.4,0.9-1.3,0.9c-0.7-0.2-0.9-1.4-0.6-2C867.3-48.1,868.1-47.9,868.3-46.5z"/>
	<path class="st7" d="M1031.5,353.6c-0.5,0.4-2.4-1.5-3.1-2.9C1030.2,350.5,1030.3,353.1,1031.5,353.6z"/>
	<path class="st7" d="M881.9,34.8c0.2,0.3,1,0.2,0.4-0.1c1.5-1.1,2,2.5,0,2C881.7,36.2,881.4,35.2,881.9,34.8z"/>
	<path class="st7" d="M883.1,44.8c0.2,0.6-0.2,0.7-0.3,1c-0.9,0.3-1.6,0.2-1.9-0.9C881.2,44.7,882.6,44.6,883.1,44.8z"/>
	<path class="st7" d="M1008.9,327.6c-2.2-1.4-4-3.5-6.7-4.6c-2.2-1-4.9-1.3-5.4-4.9c1.7,2.2,4,4.5,6.8,3.6
		C1005.4,323.7,1007.7,324.7,1008.9,327.6z"/>
	<path class="st7" d="M1002.7,318.1c-1-0.4-1.8-1.3-2.5-2.4c0.5-0.1,0.3-0.5,0.6-0.7C1002,314.9,1002.7,316.6,1002.7,318.1z"/>
	<path class="st7" d="M1013,355.6c-1.8,1-4.4,0.6-6.4,0.1c-1.6-0.4-3.8-0.8-4.2-2.1C1005.5,355,1008.9,356.1,1013,355.6z"/>
	<path class="st7" d="M874.7,45.4c-2.2,3.6-7.7-1.1-4.9-3.4C872.4,41.1,874.5,42.6,874.7,45.4z"/>
	<path class="st7" d="M844-48c-1.3,0.5-1.7-0.5-2.3-1.2c0.5-0.4,0.8-0.9,1.1-1.3C843.5-50.2,844.5-49.1,844-48z"/>
	<path class="st7" d="M1001.7,353.4c-1.7,0.3-3.9-1-4.4-2.2C998.9,351.7,1000.1,352.9,1001.7,353.4z"/>
	<path class="st7" d="M857.2,59.3c0.5-0.2,1.2,0.5,0.8-0.5C861,59.1,856.9,62.3,857.2,59.3z"/>
	<path class="st7" d="M1003.1,414.2c2.6,4.4-4.4,7.1-5.4,3C997,414.6,1001.2,411,1003.1,414.2z"/>
	<path class="st7" d="M986.2,371.2c0-0.5,2.6-1.7,3.6-1.3C989.6,371.2,987.4,370.5,986.2,371.2z"/>
	<path class="st7" d="M836.2,20.6c-0.3,0.2-0.5,0-0.7,0c-0.2-0.5,0.1-0.8,0.5-0.9C836.1,19.9,836.2,20.2,836.2,20.6z"/>
	<path class="st7" d="M985.1,370.9c-0.1,0.4-0.7,0.7-0.9,0.1c-0.7,2.7-3.7,2.1-4.6-0.2c0.6-0.3,0.9-0.1,1.5-0.3
		c0.2-0.3,0.2-0.7,0-1.2c0.5,0.2,0.9,0.3,1.5,0.3c0.2,0.5-0.3,0.5,0.1,1C983.4,370.9,984.5,370.5,985.1,370.9z"/>
	<path class="st7" d="M909.1,222.2c-0.1,0.3-0.6,0.4-1.1,0.6c-0.2-0.5-0.3-0.9-0.2-1.1C908.5,221.4,908.9,221.6,909.1,222.2z"/>
	<path class="st7" d="M970.5,353.6c-0.4,1-0.4,2.2-1.3,3.2c-0.8-1.5,0.3-2,0.3-3C969.9,353.5,970,354,970.5,353.6z"/>
	<path class="st7" d="M813.7-5.2c-0.8-0.4-1-1.8-0.5-2.4C815.7-9,816.2-4.8,813.7-5.2z"/>
	<path class="st7" d="M964.3,351.5c0.2,0.6,0,0.9-0.5,1.1c-0.1-0.4-0.3-0.9-0.4-1.2C964,351,963.8,351.9,964.3,351.5z"/>
	<path class="st7" d="M812.5,56.7c-0.7,1.9-3-0.2-1.4-1.2C811.7,55.4,812.3,55.8,812.5,56.7z"/>
	<path class="st7" d="M785.8-30.1c0,0.2-0.4,0.3-0.4,0.6c-1.1,0.2-1.9-0.1-2.3-1.3C784.3-31.3,785.5-31.8,785.8-30.1z"/>
	<path class="st7" d="M936.8,344.1c-0.6,1.7-1.2,3.4-3.3,4.4C932.7,346.4,935.7,345.4,936.8,344.1z"/>
	<path class="st7" d="M786.6,6.3c-0.8,0.2-1.4-0.1-1.5-1.1C786,3.7,788,5.2,786.6,6.3z"/>
	<path class="st7" d="M928.9,358.2c0,0.2-0.1,0.3,0,0.5c-0.5,0.3-0.8,0.1-0.9-0.5C928.3,358.2,928.6,358.1,928.9,358.2z"/>
	<path class="st7" d="M938.7,397.1c0.1,0.2,0.1,0.4,0.2,0.6c-0.5,0.4-0.5-0.2-0.8-0.2C938.1,397.2,938.5,397.2,938.7,397.1z"/>
	<path class="st7" d="M772.4-7.5c0.1,0.4-0.3,0.5-0.7,0.7C770.9-7.7,771.7-7.7,772.4-7.5z"/>
	<path class="st7" d="M1034.9,458.6c0.1,0.3,0.2,0.6,0.3,0.9c-0.2,0.1-0.3,0.1-0.3,0.3c-0.7,0.2-0.9-0.3-1.1-1
		C1034.3,458.6,1034.7,458.5,1034.9,458.6z"/>
	<path class="st7" d="M907.3,333.1c-0.4-0.2-0.1-0.8-0.4-1.5C908.7,330.4,909.2,333.6,907.3,333.1z"/>
	<path class="st7" d="M918.5,381.4c-0.9-0.4-0.9-1.5-0.7-2.4C919.7,378.1,920.2,381.1,918.5,381.4z"/>
	<path class="st7" d="M915,371.9c-0.7,0.1-1.2,0.2-1.5-0.3C913.3,369.9,916,370.5,915,371.9z"/>
	<path class="st7" d="M800.8,137.7c0,0.4-0.3,0.5-0.9,0.6c-0.2-0.5,0.1-0.8,0.5-0.9C800.5,137.5,800.6,137.6,800.8,137.7z"/>
	<path class="st7" d="M902.2,335.9c-1,2.1-2.5,4-4,5.8C899.5,339.7,900.2,337.3,902.2,335.9z"/>
	<path class="st7" d="M787.6,118.8c-0.6-0.1-1.3,0.1-1.6-0.7C786.5,118.3,787.4,117.9,787.6,118.8z"/>
	<path class="st7" d="M731.8-62c-0.1,0.1-0.1,0.3,0,0.6c-0.5,0.3-0.8,0.1-0.9-0.5C731.2-62.1,731.5-62.1,731.8-62z"/>
	<path class="st7" d="M978.4,525.4c0.2,0.6,0.1,0.9-0.5,1.1c-0.4-0.4-0.6-0.5-0.6-1.2C977.6,525.4,978.1,525.2,978.4,525.4z"/>
	<path class="st7" d="M792.4,150.6c0.1,0.7-0.2,1.1-1,1.3C791.5,151.3,791.6,150.8,792.4,150.6z"/>
	<path class="st7" d="M778.3,106.7c0.9,0.3-0.4,1.6-1.1,1.1C777.1,106.9,778.2,107.5,778.3,106.7z"/>
	<path class="st7" d="M896.9,379.1c0.1,0.4,0.2,0.7,0.4,1.1c-0.3,0.2-0.4,0.7-1.1,0.7C896.1,380.3,896.1,379.5,896.9,379.1z"/>
	<path class="st7" d="M782.9,156.2c-0.3,0.1-0.6,0.2-0.9,0.3c-0.5-0.3-0.4-1-0.5-1.4C782.4,154.8,782.7,155.3,782.9,156.2z"/>
	<path class="st7" d="M777.4,150.2c-1.5,0.7-2.2,0.5-3.2,0c-0.3-0.5,0-0.7-0.2-1.1C775.5,148.8,776.6,149,777.4,150.2z"/>
	<path class="st7" d="M766.1,115.2c-1.6,0.9-3.5-0.2-5.3-0.2c0.8-0.8,2.6,0.5,3.3-0.3C764.2,115.4,765,114.9,766.1,115.2z"/>
	<path class="st7" d="M724.8-11.2c0.1,0.6,0.1,1.1-0.6,1.4c-0.1-0.2-0.2,0-0.4-0.1c-0.3-0.6-0.3-1.2,0.2-1.4
		C724.5-11.6,724.4-11.1,724.8-11.2z"/>
	<path class="st7" d="M771.3,148.7c-0.1,1.6-0.6,3-2,3.9c-1.3-1.9,1-2.7,1-3.8C770.8,148.5,771.1,148.5,771.3,148.7z"/>
	<path class="st7" d="M984.5,447.5c0,0.2-0.1,0.4,0,0.7c-0.6,0.4-0.7-0.2-1-0.3C983.5,447.3,984.1,447.5,984.5,447.5z"/>
	<path class="st7" d="M765.3,142.4c0.8-0.6,1.4-1.5,2.7-2.2C767.4,141,766.4,142.3,765.3,142.4z"/>
	<path class="st7" d="M760.1,114.6c0.1,0.4-0.6,0.3-0.8,0.5c-0.1-0.2-0.1-0.3-0.3-0.3C759.1,114.2,759.7,114.9,760.1,114.6z"/>
	<path class="st7" d="M765.6,142.5c-0.3,0.5-1.1,0.9-1.3,1.4C763.8,143.6,765,142.3,765.6,142.5z"/>
	<path class="st7" d="M708.2-42.3c1.2,2.6,0.3,5.8-3,4.7c-1.1-0.4-4-2.3-4.3-4.5c-0.2-1.5,1.4-3.1,3.6-3.2
		C705.7-45.3,707.3-44,708.2-42.3z"/>
	<path class="st7" d="M981.9,459.3c-0.4-0.2-0.5-0.8-0.4-1.1c0.3-0.1,0.5-0.2,0.8-0.3C982.8,458.5,982.8,459,981.9,459.3z"/>
	<path class="st7" d="M1000,455.6c-1.8,2-5.2,1.3-4.6-1.5C997.3,452.9,999.6,453.2,1000,455.6z"/>
	<path class="st7" d="M982.7,477.8c1.5-0.5,2.7,2,0.6,1.8C982.8,479.3,982.3,478.3,982.7,477.8z"/>
	<path class="st7" d="M940.1,536.7c0.2,0.5,0.3,0.9,0.1,1.1c-0.7,0.3-1.2,0.2-1.4-0.6C939.1,536.7,939.3,536.8,940.1,536.7z"/>
	<path class="st7" d="M750.4,138.2c-0.9,0-3-0.5-3.8-1.6C748.3,136.5,748.7,137.5,750.4,138.2z"/>
	<path class="st7" d="M744.6,135.8c-1,1.7-4.3-2.4-2-3.5C743,134.1,743.3,135.3,744.6,135.8z"/>
	<path class="st7" d="M736.4,120.4c-0.2-0.5-0.5-0.5-0.4-1c0.3-0.2,0.6-0.5,1-0.8C737.5,119.2,737.8,120.2,736.4,120.4z"/>
	<path class="st7" d="M729.1,92.8c-0.5,0.7-1.4,0.7-1.9,0.2c-0.1-0.7,0.4-1.1,1.1-1.3C728.7,92,729,92.1,729.1,92.8z"/>
	<path class="st7" d="M846.9,343.2c0,0.7-0.8,0.1-0.9,0.6C845.1,343.4,846.4,342.9,846.9,343.2z"/>
	<path class="st7" d="M718.7,66.1c-0.5,0.3-0.7,0-1.1,0.2c-0.2-0.5-0.3-1-0.2-1.3C718.1,64.2,718.9,65.2,718.7,66.1z"/>
	<path class="st7" d="M960.5,476c-1.1-2.1,1.5-3.7,2.7-3.1C964.6,474.3,962.3,476.5,960.5,476z"/>
	<path class="st7" d="M681.3-46.2c0.2,0.3,0.1,0.5,0,0.7c-0.3,0.1-0.5-0.2-0.6-0.6C681-46.1,681.2-46.2,681.3-46.2z"/>
	<path class="st7" d="M858.1,398.2c-0.9,0.6-1.7,0.6-1.8-0.8C857.2,396.4,858.7,397.1,858.1,398.2z"/>
	<path class="st7" d="M723.3,102.4c-0.3,0.2-0.5,0.1-0.7,0c-0.2-0.5,0.1-0.8,0.5-0.9C723.4,101.7,723.5,102,723.3,102.4z"/>
	<path class="st7" d="M721.9,108.7c-0.5-0.7-0.3-1.9,0.9-2C723.9,107.2,723.5,109.1,721.9,108.7z"/>
	<path class="st7" d="M731.2,147.4c0.2,0.5-0.1,0.7-0.6,0.7C730.3,147.5,730.8,147.2,731.2,147.4z"/>
	<path class="st7" d="M722.2,124.2c-0.1,0.3-0.4,0.3-0.8,0.5c-0.1-0.4-0.2-0.7-0.3-1C721.6,123.3,722,123.6,722.2,124.2z"/>
	<path class="st7" d="M951.2,486.9c0.3-0.5,1-1.1,1.7-0.9C954.7,487.6,951.4,489.5,951.2,486.9z"/>
	<path class="st7" d="M721.7,131.6c-0.3-0.2-0.4-0.6-0.3-0.9C722.1,130.4,722.8,131.6,721.7,131.6z"/>
	<path class="st7" d="M707.3,110.7c-0.2,0.1-0.3,0.1-0.3,0.3c-1.4,0.5-2.9-0.7-2.4-2.1C705.9,108.7,707.5,109.2,707.3,110.7z"/>
	<path class="st7" d="M687.6,65.7c-1.2,0.8-2.1-0.9-1.2-1.4C687.4,63.9,688,65,687.6,65.7z"/>
	<path class="st7" d="M728.9,214.7c-0.6,0.2-0.8-0.2-1.2-0.2c-0.2-0.7,0-0.5-0.3-1C728.5,212,730.2,213.7,728.9,214.7z"/>
	<path class="st7" d="M921.7,443.9c-0.5,0.2-0.9,0.3-1.2,0.4c-0.6-0.3-0.9-1.4-0.7-2C920.8,441.4,921.9,442.6,921.7,443.9z"/>
	<path class="st7" d="M745.4,277.3c-0.6,0.4-1,0.4-1.7,0.4c-0.2-0.5-0.3-1-0.2-1.3C744.4,275.7,745.6,276.2,745.4,277.3z"/>
	<path class="st7" d="M697.9,122.5c0.3,0.4-0.3,0.5-0.2,0.8c-0.6,0-0.3-0.2-0.4-0.7C697.5,122.7,697.7,122.6,697.9,122.5z"/>
	<path class="st7" d="M916.6,450.8c0.2,0.5,0.2,0.8-0.1,1c-0.5,0.2-0.6-0.3-0.8-0.8C916.3,450.7,916.1,450.8,916.6,450.8z"/>
	<path class="st7" d="M719.8,214.6c-0.8,1.4-2.5,1.4-3.8,1.9C716.7,215.3,718.7,214.9,719.8,214.6z"/>
	<path class="st7" d="M711.5,217.9c-0.5,0.9-1.4,2.1-2.9,2c0-0.5-0.4-0.4-0.5-0.9C708.9,218.3,710.4,217.7,711.5,217.9z"/>
	<path class="st7" d="M684.3,135.4c-0.1,0.3,0,0.7-0.3,0.9c-0.5,0.3-0.5-0.3-0.9-0.3C683.3,135.3,683.9,135,684.3,135.4z"/>
	<path class="st7" d="M910.4,482.8c-0.6-0.9-1.2-2-0.9-3.1C911.5,478.9,912.7,482.7,910.4,482.8z"/>
	<path class="st7" d="M645.3,14.1c-0.8,0.3-1.5-0.3-1.1-1C645.1,12.7,645.4,13.4,645.3,14.1z"/>
	<path class="st7" d="M712,240.7c-0.5,0.4-0.6-0.1-1,0.1c-0.1-0.6-0.3-1.1,0.5-1.1C711.7,239.8,711.8,240.2,712,240.7z"/>
	<path class="st7" d="M678.8,141.2c0.1,0.2,0.2,0.5,0.3,0.8c-0.2,0.1-0.5,0.2-0.7,0.2C678,141.6,678.2,141.2,678.8,141.2z"/>
	<path class="st7" d="M901.9,476.5c0.1,0.2,0.1,0.4,0.2,0.5c-0.1,0.3-0.4,0.3-0.9,0.5c-0.3-0.4,0.1-0.6-0.1-0.9
		C901.5,476.4,901.5,476.6,901.9,476.5z"/>
	<path class="st7" d="M898.7,471.7c-0.4,0.8-1.4,1.2-2.2,0.6c-0.5-0.8-0.1-1.1-0.2-1.7C897.6,470,898.4,470.2,898.7,471.7z"/>
	<path class="st7" d="M700.4,238.2c-1.6,1-2.2-0.8-3.2-1.3C698.2,237.5,700.1,236.2,700.4,238.2z"/>
	<path class="st7" d="M653.8,85.3c0.2,0.3,0.1,0.7,0.1,0.9c-0.5,0.2-0.8-0.1-0.9-0.5C653,85.6,653.3,85.4,653.8,85.3z"/>
	<path class="st7" d="M722.7,321.4c1.9-1,2.9,1.4,1.7,2.1C723.5,324,722.1,322.8,722.7,321.4z"/>
	<path class="st7" d="M637,40.1c0.2,0.3,0.1,0.5,0.1,0.8c-0.2,0.1-0.4,0.1-0.6,0.2c-0.3-0.2-0.4-0.6-0.3-0.9
		C636.5,40,636.6,40.2,637,40.1z"/>
	<path class="st7" d="M710,301.5c-0.2,0-0.6-0.1-0.6,0.2c-2.5-1.7-2.1-6,0.5-6.6c1.5-0.4,3.8,0.9,2.8,2.7c-0.4,0.8-1.5,0.6-2,1.2
		C710.2,299.7,710.3,300.5,710,301.5z"/>
	<path class="st7" d="M727.7,351.8c0-0.7-0.7-0.3-0.7-1.1C727.8,348.4,730.6,351.4,727.7,351.8z"/>
	<path class="st7" d="M713.1,306.2c-0.4-0.2-0.4-1-0.6-1.6c0.5-0.6,0.8-0.5,1.8-0.7C714.6,304.3,714.9,306.5,713.1,306.2z"/>
	<path class="st7" d="M654.8,132.3c0.3,0.5-0.1,0.6,0.1,0.9c-1.8,0.5-3.3,1.6-4.5,2.8c-0.4-0.2-0.7-0.3-1-0.7
		C650.4,133.5,652.5,132.5,654.8,132.3z"/>
	<path class="st7" d="M708.1,315.8c2.3-0.3,2.4,2.7,0.9,3.1C707.4,319.2,707.1,316.8,708.1,315.8z"/>
	<path class="st7" d="M709.9,323.7C713.1,321.6,711.4,327.1,709.9,323.7L709.9,323.7z"/>
	<path class="st7" d="M714.5,338.3c-0.5,0.1,0.1-0.4-0.3-0.8c0.3,0.1,0.6,0.1,0.9-0.1c-0.2,0.3,0.1,1-0.5,1.1
		C714.7,337.9,714.7,337.6,714.5,338.3z"/>
	<path class="st7" d="M609-8.8c-0.4,0.1-0.9,0.3-1.3,0.3c-0.9-0.6-0.6-2,0.3-2.1C608.6-10.2,609.2-9.5,609-8.8z"/>
	<path class="st7" d="M651.1,142.1c-0.2,0.4,0,0.9-0.7,1c-0.5-0.3-0.1-0.6-0.3-1C650.6,141.7,650.7,142.1,651.1,142.1z"/>
	<path class="st7" d="M683.7,251.7c-0.1,0.3,0,0.7-0.1,1c-0.3,0.1-0.4-0.1-0.7,0C682.7,252.2,683,251.8,683.7,251.7z"/>
	<path class="st7" d="M611.2,21.4c0.1,0.3-0.1,0.4,0,0.7c-0.5,0.3-1.1,0.3-1.1-0.5C610.7,21.4,610.7,21.4,611.2,21.4z"/>
	<path class="st7" d="M621.6,55.9c0.1,0.3,0.2,0.6,0.3,0.9c-0.6,0.3-0.9,0-1-0.7C621.1,56.1,621.4,56,621.6,55.9z"/>
	<path class="st7" d="M633.3,141.5c0.3,0.5,0.2,0.9,0.2,1.3c-0.8,0.4-1.2,0-1.4-0.7C632.5,141.2,632.8,142.1,633.3,141.5z"/>
	<path class="st7" d="M678.5,294.9c0.1,0.3-0.1,0.4,0.1,0.8c-0.5,0.1-0.8-0.1-0.9-0.5C677.8,294.8,678.3,294.7,678.5,294.9z"/>
	<path class="st7" d="M630.2,156.5c-0.4,0.3-0.5-0.3-0.8-0.2c-0.2-0.5,0.1-0.8,0.5-0.9C630,155.8,630.4,156.1,630.2,156.5z"/>
	<path class="st7" d="M1182.4,39.5c-0.9,0.2-3.5,1.4-4-0.2c0.4-0.3,2.3-0.6,2.2,0.1c0.3-0.2,1,0,0.8-0.5
		C1181.8,39.1,1182.1,39.4,1182.4,39.5z"/>
	<path class="st7" d="M1338.1,198.3c-2.9-2-4.7-6.1-7.1-9.1C1333.5,190.9,1336.2,194.7,1338.1,198.3z"/>
	<path class="st7" d="M1040.1-8.5c-1.6,1.1-2.9-0.6-4.1-1.4c0.1-0.9,1.2,0.2,1.2-0.4c0.2-0.1,0.4,0.5,0.2,0.6
		c0.1,0.3,0.6-0.1,0.8,0.2C1037.3-10.4,1040.1-9.8,1040.1-8.5z"/>
	<path class="st7" d="M924,86.5c0.7,1.4-1.6,2.4-1.5,4c-2.2,1-2.3,5.2-5,4.4c0.9-2.5,3.8-4.1,4.4-6.4c1.4,0.2,0.6-1.5,1.3-0.8
		c0.3-0.2-0.1-0.3-0.2-0.6C923.1,87.2,923.7,87.1,924,86.5z"/>
	<path class="st7" d="M879.5-7.4c-1.6,0.4-2.3-0.9-3-2.3c-3.5-2.2-7-4.4-10-7.4c0.4,0.1,0.9-0.6,0.4-0.6c2,0.5,5.1,4.1,7.3,5.9
		C876.2-10.2,878.9-9.8,879.5-7.4z"/>
	<path class="st7" d="M1022.7,343c-1.1-0.5-1.7-1.7-2.6-2.7C1021,341.1,1022.2,341.4,1022.7,343z"/>
	<path class="st7" d="M1078.8,346.8c1.1-0.1,3,2.4,3.6,3.4c2.3,1.1,3.5,4,5.4,5.9c0.2,0.3-0.1,0.4-0.1,0.3
		C1084.5,353.7,1081.8,350,1078.8,346.8z"/>
	<path class="st7" d="M801.5,74.3c2.5-2.6,7,0,9.5,1.2c0.9,0.4,2,0.2,2.3,1.2c0.4,1.2-0.8,3.2-1.7,3.5
		C808.3,81,802.7,77.8,801.5,74.3z"/>
	<path class="st7" d="M785.8,156.7c-0.2,0.4-0.3,2.2-0.4,3.1c-1.1,0.5-2,0.4-2.3-0.5C783.8,158.4,784.9,157.1,785.8,156.7z"/>
	<path class="st7" d="M995.6,314.5c-1.7-2.2-3.6-6-2.6-8.6C994.9,308.3,994.2,311.8,995.6,314.5z"/>
	<path class="st7" d="M778.8,132.8c0.3,0.8-0.4,1-0.3,1.7c0.3,0,0.3,0.3,0.6,0.4c1.3-0.9,3.9-4.8,1.3-4.6c-0.8,0.1-1.3,1.3-1.8,1.9
		c-0.2-0.8-0.3,0.2-0.9,0.1C777.9,133.4,778.6,132.1,778.8,132.8z"/>
	<path class="st7" d="M878.5,361.1c1.7-0.7,3.2-2.3,4-3c-0.1-0.2-0.1-0.4-0.2-0.6c-2.8,1.1-4.4,2.7-8.7,3.2
		C874.3,362.8,876.9,361.8,878.5,361.1z"/>
	<path class="st7" d="M938.1,452.6c0.3,2.2-1,3.6-2.2,5c0.4,3.9,3.5,6.3,7.2,4.1C945.4,458.1,941.4,453,938.1,452.6z"/>
	<path class="st7" d="M731.4,190.7c2.9,2,5.7-2.1,5.2-3.7c-0.6-1.8-2.7-3.3-4.7-2.6C729.4,185.4,729.2,189.1,731.4,190.7z"/>
	<path class="st7" d="M741,221.9c0.2-0.7,0.3-1.6-0.1-2.3c-0.9-1.3-2.5-0.3-4.1-0.5c-2-0.2-4.8-2.6-5.9-0.6c0.2,0.5,0.3,0.9,0.2,1.1
		c0.9,1.1,2.5,0.6,3.8,1c1,2.5,3.2,3.2,5.2,2.8c0.7,2-2.4,2.1-3,3.4c1.9,2,4.7-1.4,6.6-1.8C743.9,222.9,741.5,223.5,741,221.9z"/>
	<path class="st7" d="M647.3,102.5c0-0.2,0.4-0.3,0.7-0.3c0.1,0.2,0.2,0.5,0.2,0.7C647.6,103.1,647.6,102.5,647.3,102.5z"/>
	<path class="st7" d="M840.5-102c2.2-0.2,5.1,0.6,6.4-1.2c0-1.5-1.8-3-3.3-1.7c0.4-0.1-0.8,1.3-1.5,1.6c-2.3-0.1-4.6-0.9-6.2,1.1
		c-0.7-0.2-0.8-1.1-1.4-0.6c0.3,0.1-0.5,0.1-0.3,0.5c-2.1,0.3-5.4,0.5-8.1,1.4C830.5-101.4,836.3-101.7,840.5-102z"/>
	<path class="st7" d="M1209.3,187.8c2.1,0.9,6.1-0.6,7.9-1.8c3.1-2.1,6.1-4.9,9.5-6.8c4.4-2.4,9.1-5.2,12.4-8.5
		c2.1-2.1,3.7-4.7,5.1-7.1c1.7-2.7,3.9-4.7,5.6-7c-0.4-1.7-1.5-1.7-1.7-3c-1.2,0.3-1,1.3-1.6,1.9c0.4-0.1,0.5,0.3,0.6,0.8
		c-1.4,4.3-3.9,7.6-6.5,11c0.1,0.6-0.4,0.3,0.1,0.9c-0.7,0.1-1.7,1.3-2.1,2.1c-0.3-0.5-0.4-0.2-0.8,0.1c-1.9,3.1-6.5,4.6-8.9,7
		c-0.7-0.1-1.2,0.3-2.2,0.5c-4.3,2.3-8.2,5.2-11.9,7.7c-2.1-0.3-2.6,0.7-4.3,0.1c-1.9-0.5-2.8-2.9-4.5-3.3c-1.7-0.4-4.4,1.4-5.2,2.6
		c1.8-0.3,2.8-1.1,4.5-0.8C1206.7,185.2,1207.8,187.3,1209.3,187.8z"/>
	<path class="st7" d="M848.8-153.3c2-0.9,1.1-3.2,1.9-4.7c1.5-0.3,2.6,0.8,3.9,1.2c4.4,1.5,9,2.1,12.8,4.6c0.9,0.6,1.6,1.7,2.6,2.2
		c0.9,0.4,2.2,0.1,2.8,0.9c-3.7,0.8-7.2-2.9-10.9-2c1.9,2.5,5,2.7,8,3.8c2.9,1.1,6,3.4,8.3,3.4c3.1,0,6.5-2.9,4.5-5.5
		c-2.2-2.8-11.1-0.1-10-6.7c-0.5,0.2-0.9,0.3-0.9-0.3c-2.3,2.2-4.9,1.1-6.5-0.5c-1,0.1-0.9,0.7-1.7,0.9c-2.7-1.1-5-2-8.6-3.1
		c-1.6-0.5-5.4-2.2-6.9-1.9C845.6-160.2,844.7-154.2,848.8-153.3z"/>
	<path class="st7" d="M736.4,102.4c-0.1,0-0.3-0.1-0.3-0.3c-0.7-0.1-0.8,0.2-1.4,0.5c-0.3,0.8-0.2,2.5,0.9,2.4
		C736,104.3,736.6,103.6,736.4,102.4z"/>
	<path class="st7" d="M737,110.1c1.6-1.3,0.7-5-1.5-5.1c-0.7,0.7-1.4,1.5-1.9,2.3c-1.7,1.6-3.8,2.3-4.1,4.7c2.1,0.5,2.3-1.7,3.9-2.2
		C734.5,109.8,735.4,111,737,110.1z"/>
	<path class="st7" d="M1155.5-29.8c-2.6-0.2-4.7,0-7.6,1c-0.2,0.3,0.1,0.8-0.5,0.9c0.3,1.4,1.2,2.1,0.2,2.9c-5.1,0.6-3.9,4.6-5.6,7
		c-1.3,0.5-2,1.4-2.7,2.2c-1.8,0.3-2.3,1.3-2.6,2.3c-0.9,0.1-3.1,1.4-3.8,2.5c-0.5,0.2,0.3-0.6-0.5-0.3c-0.6,0.1,0.7,0.4,0,0.6
		c-0.7-0.6-0.8-0.4-1.1-1c-3.5,0.5-4.5,5.3-7.9,5.7c-0.1,1-0.2,0.4-0.7,0.4c-1.5,0.6-1.8,3.9,0.5,4.4c0.7-0.1,1.5-0.4,1.8-0.7
		c2-2,3.6-4.3,5.6-6.2c1.4-1.4,3.4-2.2,5.2-3.5c1.4-1,2.5-2.2,4.2-3.2c3.6-2.2,6.2-2.8,8.4-5.4c3.5-4.1,6.5-7.4,13.7-8.3
		c-0.8-1.8-3.7,0.8-5,0.5C1157.1-29,1155.7-28.8,1155.5-29.8z"/>
	<path class="st7" d="M773.8,116.2c0.1,0.2,0.1,0.4,0.2,0.6c-1.4,0-2.6,0-3.8-0.2c0.1-0.3,0.1-0.4,0-0.7
		C771.7,115.1,772.3,116.5,773.8,116.2z"/>
</g>
</svg>
